<svg width="162" height="43" xmlns="http://www.w3.org/2000/svg"><g fill="none" fill-rule="evenodd"><path d="M161.168 21.829a7.33 7.33 0 00-2.06-5.116 6.935 6.935 0 00-5.015-2.103c-4.03 0-7.242 3.346-7.242 7.342 0 .728.31 2.111.31 2.7 0 3.142-2.498 5.69-5.581 5.69h-5.977c-1.14 0-2.068.95-2.068 2.116v8.225c0 1.17.928 2.118 2.068 2.118h8.063c1.148 0 2.073-.947 2.073-2.117v-6.096c0-3.145 2.5-5.694 5.585-5.694.577 0 1.932.317 2.646.317 3.916 0 7.198-3.277 7.198-7.382m-42.19-6.705h7.436c2.717-.006 4.42-1.412 5.048-2.087.63-.669 2.09-2.352 2.09-4.307V2.422c0-1.168.927-2.113 2.069-2.113h8.061c1.149 0 2.074.945 2.074 2.114v8.227c0 1.169-.925 2.116-2.074 2.116l-6.182-.002c-1.919 0-3.564 1.491-4.22 2.134-.66.642-2.04 2.375-2.046 5.147v7.581h-12.256V15.124" fill="#EC1C2D"/><path d="M71.383 16.072v13.315s4.755 1.202 12.201 1.202c7.395 0 12.203-1.197 12.203-1.197v-4.524s-5.169 1.033-12.253 1.033c-3.44 0-5.716-.412-6.943-.534-.001-1.09.004-4.169 0-5.271 1.373-.14 3.678-.54 6.993-.54 6.898.023 12.203 1.07 12.203 1.07V16.07s-4.736-1.203-12.203-1.203c-7.523 0-12.201 1.206-12.201 1.206m30.196 14.217h5.345V15.113h-5.345zm-71.491 0h5.345V15.113h-5.345zm30.204 0s-3.86-3.184-9.543-6.185c-1.583-.838-2.923-1.394-4.164-1.909l.001 8.094h-5.171V15.142s4.375.867 9.342 3.494c5.682 3.003 9.538 5.915 9.538 5.915v-9.437h5.192V30.29h-5.195zM26.521 18.552L13.267 30.696 0 18.546l3.966-3.687s8.103 7.957 9.301 9.091c1.195-1.134 9.301-9.092 9.301-9.092l3.953 3.694zM75.196 42.39v-6.498h3.86v.803H76.66v1.965h2.133v.791H76.66v2.136h2.397v.804zm9.881 0l-3.01-4.194c-.265-.369-.46-.727-.46-.727h-.022s.044.37.044.756v4.166h-1.233v-6.499h1.383l2.836 3.948c.267.37.428.66.428.66h.023s-.036-.311-.036-.69v-3.918h1.222v6.499h-1.175zm2.813 0v-6.498h3.86v.803h-2.394v1.965h2.132v.791h-2.132v2.136h2.394v.804zm10.56 0l-2.362-2.88v-.019c1.256-.067 2.12-.738 2.12-1.72 0-1.217-.957-1.973-2.928-1.973-.91 0-1.672.16-2.169.367v6.226h1.442v-2.947h.024l2.248 2.947h1.626zm-1.67-4.563c0 .87-.552 1.371-1.684 1.371-.219 0-.45-.018-.543-.048V36.6a2.07 2.07 0 01.727-.113c1.07 0 1.5.434 1.5 1.34zm5.98 4.657c-2.122 0-3.457-1.2-3.457-3.383 0-2.066 1.439-3.303 3.493-3.303.9 0 1.532.14 1.984.358l-.441.738c-.252-.123-.689-.247-1.37-.247-1.373 0-2.18.776-2.18 2.513 0 1.642.807 2.494 1.914 2.494.426 0 .669-.067.797-.124v-2.136h-1.144v-.735h2.526v3.459c-.496.236-1.072.366-2.122.366m3.73-.094h1.473v-6.498h-1.474zm3.13 0v-6.498h3.864v.803h-2.399v1.965h2.135v.791h-2.135v2.136h2.4v.804zm6.772.094c-.946 0-1.534-.14-1.963-.366l.36-.844c.278.152.728.303 1.327.303.782 0 1.267-.397 1.267-1.002 0-.491-.347-.792-1.234-1.094-1.291-.443-1.638-1.143-1.638-1.777 0-1.027.912-1.906 2.375-1.906.797 0 1.383.16 1.743.367l-.324.737a2.785 2.785 0 00-1.224-.292c-.725 0-1.141.368-1.141.943 0 .566.507.832 1.2 1.071 1.556.536 1.788 1.254 1.788 1.877 0 1.153-1.062 1.983-2.536 1.983" fill="#004990"/></g></svg>