<?xml version="1.0" encoding="utf-8"?>
<!-- Generator: Adobe Illustrator 19.2.1, SVG Export Plug-In . SVG Version: 6.00 Build 0)  -->
<svg version="1.1" id="layer" xmlns="http://www.w3.org/2000/svg" xmlns:xlink="http://www.w3.org/1999/xlink" x="0px" y="0px"
	 viewBox="0 0 652 652" style="enable-background:new 0 0 652 652;" xml:space="preserve">
<style type="text/css">
	.st0{fill:#004289;}
	.st1{fill:#E40520;}
</style>
<g>
	<path class="st0" d="M289.4,299.1v49c0,0,17.4,4.4,44.7,4.4c27.1,0,44.7-4.4,44.7-4.4v-16.7c0,0-18.9,3.8-44.9,3.8
		c-12.6,0-21-1.5-25.4-2v-19.4c5-0.5,13.5-2,25.6-2c15,0,30,1.3,44.7,3.9v-16.8c0,0-17.4-4.4-44.7-4.4
		C306.6,294.7,289.4,299.1,289.4,299.1z M399.9,294.7H421v57.9h-21.1V294.7z M131.5,294.7h21.1v57.9h-21.1V294.7z M249.1,352.6
		c-11.1-8.9-22.9-16.9-35.5-23.6c-5.9-3.2-10.9-5.3-15.5-7.3v30.9h-19.2v-57.8c12.1,2.9,23.8,7.3,34.7,13.3
		c12.4,6.6,24.2,14.2,35.5,22.6v-36h19.3v57.9H249.1z M121,308.2l-50,44.4l-50-44.4l14.9-13.5c0,0,30.6,29.1,35.1,33.2
		c4.5-4.1,35.1-33.2,35.1-33.2L121,308.2z"/>
	<path class="st1" d="M463.1,296.3h27.8c7,0.1,13.8-2.7,18.8-7.6c2.4-2.5,7.8-8.6,7.8-15.8v-23.1c0-4.3,3.5-7.7,7.7-7.7h30.1
		c4.3,0,7.7,3.5,7.7,7.8v30.1c0,2.1-0.8,4-2.2,5.5c-1.5,1.5-3.4,2.3-5.5,2.3h-23.1c-7.2,0-13.3,5.5-15.8,7.8c-5,5-7.7,11.8-7.6,18.8
		v27.7h-45.8V296.3 M621,321.6c0-7.1-2.8-14-7.8-19.1c-5.1-5.1-11.9-7.9-19.1-7.8c-15.2,0-27.6,12.3-27.6,27.4
		c0,2.7,1.2,7.9,1.2,10.1c0,5.6-2.2,11-6.2,15c-4,4-9.4,6.2-15.1,6.2h-22.8c-2.1,0-4.1,0.9-5.6,2.3c-1.5,1.5-2.3,3.5-2.3,5.6V392
		c0,2.1,0.8,4.1,2.3,5.6c1.5,1.5,3.5,2.3,5.6,2.3h30.7c2.1,0,4.1-0.8,5.6-2.3c1.5-1.5,2.3-3.5,2.3-5.6v-22.8
		c0-11.7,9.5-21.2,21.3-21.2c2.2,0,7.4,1.2,10.1,1.2C608.8,349.1,621.1,336.7,621,321.6z"/>
	<path class="st0" d="M300.4,399.4V374h14.4v3.1h-8.9v7.7h7.9v3.1h-7.9v8.3h8.9v3.1H300.4z M337.1,399.4L325.9,383
		c-0.6-0.9-1.2-1.9-1.7-2.8h-0.1c0.1,1,0.2,2,0.2,2.9v16.2h-4.6V374h5.1l10.5,15.4c0.6,0.8,1.1,1.7,1.6,2.6h0.1
		c-0.1-0.9-0.1-1.8-0.1-2.7V374h4.5v25.3C341.5,399.4,337.1,399.4,337.1,399.4z M347.5,399.4V374h14.4v3.1H353v7.7h7.9v3.1H353v8.3
		h8.9v3.1H347.5z M380.6,381.6c0,3.4-2.1,5.3-6.3,5.3c-0.7,0-1.4,0-2-0.2v-9.9c0.9-0.3,1.8-0.5,2.7-0.4
		C379,376.4,380.6,378,380.6,381.6L380.6,381.6z M386.8,399.4l-8.8-11.2v-0.1c4.7-0.3,7.9-2.9,7.9-6.7c0-4.8-3.5-7.7-10.9-7.7
		c-2.8-0.1-5.5,0.4-8.1,1.4v24.3h5.4v-11.5h0.1l8.4,11.5L386.8,399.4L386.8,399.4z M402.8,399.7c-7.9,0-12.8-4.7-12.8-13.2
		c0-8.1,5.4-12.9,13-12.9c3.3,0,5.7,0.5,7.4,1.4l-1.6,2.9c-1.6-0.7-3.3-1-5.1-1c-5.1,0-8.1,3-8.1,9.8c0,6.4,3,9.7,7.1,9.7
		c1,0.1,2-0.1,2.9-0.5v-8.3h-4.2v-2.9h9.4v13.5C408.8,399.2,406.7,399.7,402.8,399.7z M416.7,399.4V374h5.5v25.3H416.7z
		 M428.3,399.4V374h14.4v3.1h-8.9v7.7h7.9v3.1h-7.9v8.3h8.9v3.1H428.3z M453.5,399.7c-3.5,0-5.7-0.5-7.3-1.4l1.3-3.3
		c1.5,0.8,3.2,1.2,4.9,1.2c2.9,0,4.7-1.6,4.7-3.9c0-1.9-1.3-3.1-4.6-4.3c-4.8-1.7-6.1-4.5-6.1-6.9c0-4,3.4-7.4,8.8-7.4
		c3,0,5.1,0.6,6.5,1.4l-1.2,2.9c-1.4-0.7-3-1.1-4.5-1.1c-2.7,0-4.2,1.4-4.2,3.7c0,2.2,1.9,3.2,4.4,4.2c5.8,2.1,6.6,4.9,6.6,7.3
		C462.9,396.5,458.9,399.7,453.5,399.7z"/>
</g>
</svg>
